<svg width="91" height="37" viewBox="0 0 91 37" fill="none" xmlns="http://www.w3.org/2000/svg">
<path fill-rule="evenodd" clip-rule="evenodd" d="M6.17969 2.06033C6.17969 0.922443 7.10211 0 8.24002 0C8.4807 0 8.71176 0.0412712 8.92642 0.117111C8.96015 0.123071 8.99389 0.129883 9.02762 0.137573L32.4568 5.48123C33.2771 5.66832 33.8704 6.32089 34.0217 7.09677H34.0323V7.1563C34.0678 7.37148 34.0692 7.59533 34.0323 7.82071V19.2298H29.9117V9.12727L10.3004 4.65434V21.1375C10.3004 22.2754 9.37793 23.1978 8.24002 23.1978C7.10211 23.1978 6.17969 22.2754 6.17969 21.1375V2.06033Z" fill="url(#paint0_linear_15_11)"/>
<path fill-rule="evenodd" clip-rule="evenodd" d="M9.02757 0.137577L32.4568 5.48124C33.2771 5.66833 33.8704 6.32088 34.0216 7.09676H34.0323V7.15628C34.0677 7.37146 34.0692 7.59532 34.0323 7.8207V19.2298H29.9116V9.12726L8.11134 4.15508C7.00189 3.90205 6.30771 2.79758 6.56068 1.68818C6.81372 0.578775 7.91819 -0.115453 9.02757 0.137577Z" fill="url(#paint1_linear_15_11)"/>
<path d="M40.4423 25.8305C40.4423 30.4453 36.7013 34.1863 32.0865 34.1863C27.4717 34.1863 23.7307 30.4453 23.7307 25.8305C23.7307 21.2158 27.4717 17.4747 32.0865 17.4747C36.7012 17.4747 40.4423 21.2158 40.4423 25.8305ZM27.1861 25.8305C27.1861 28.5369 29.3801 30.7309 32.0865 30.7309C34.7928 30.7309 36.9868 28.5369 36.9868 25.8305C36.9868 23.1242 34.7928 20.9301 32.0865 20.9301C29.3801 20.9301 27.1861 23.1242 27.1861 25.8305Z" fill="#FE4E85"/>
<path d="M16.7103 28.2864C16.7103 33.0199 12.9696 36.8571 8.35516 36.8571C3.74075 36.8571 0 33.0199 0 28.2864C0 23.553 3.74075 19.7158 8.35516 19.7158C12.9696 19.7158 16.7103 23.553 16.7103 28.2864ZM3.45514 28.2864C3.45514 31.0624 5.64901 33.3128 8.35516 33.3128C11.0613 33.3128 13.2552 31.0624 13.2552 28.2864C13.2552 25.5105 11.0613 23.26 8.35516 23.26C5.64901 23.26 3.45514 25.5105 3.45514 28.2864Z" fill="#33AAFA"/>
<g filter="url(#filter0_d_15_11)">
<path d="M49.4079 11.7695V10.207H60.317V11.7695H55.7432V24.7525H53.9818V11.7695H49.4079ZM64.534 25.0082C63.8427 25.0082 63.2153 24.878 62.6519 24.6176C62.0884 24.3524 61.641 23.9713 61.3096 23.4741C60.9781 22.9722 60.8124 22.3661 60.8124 21.6559C60.8124 21.0309 60.9355 20.5243 61.1817 20.136C61.4279 19.743 61.757 19.4353 62.1689 19.2127C62.5809 18.9902 63.0354 18.8245 63.5326 18.7156C64.0345 18.6019 64.5387 18.512 65.0454 18.4457C65.7082 18.3605 66.2456 18.2965 66.6576 18.2539C67.0742 18.2066 67.3773 18.1284 67.5667 18.0195C67.7608 17.9106 67.8579 17.7213 67.8579 17.4514V17.3945C67.8579 16.6938 67.6661 16.1493 67.2826 15.761C66.9038 15.3728 66.3285 15.1786 65.5567 15.1786C64.7565 15.1786 64.1292 15.3538 63.6746 15.7042C63.2201 16.0546 62.9005 16.4286 62.7158 16.8264L61.1249 16.2582C61.409 15.5953 61.7878 15.0792 62.2613 14.7099C62.7395 14.3358 63.2603 14.0754 63.8238 13.9286C64.3919 13.7771 64.9507 13.7014 65.4999 13.7014C65.8503 13.7014 66.2527 13.744 66.7073 13.8292C67.1666 13.9097 67.6093 14.0778 68.0354 14.3335C68.4663 14.5891 68.8238 14.975 69.1079 15.4911C69.3919 16.0072 69.534 16.6985 69.534 17.565V24.7525H67.8579V23.2752H67.7726C67.659 23.512 67.4696 23.7653 67.2044 24.0352C66.9393 24.3051 66.5865 24.5347 66.1462 24.7241C65.7059 24.9135 65.1685 25.0082 64.534 25.0082ZM64.7897 23.5025C65.4526 23.5025 66.0113 23.3723 66.4658 23.1119C66.9251 22.8515 67.2707 22.5153 67.5027 22.1034C67.7395 21.6914 67.8579 21.2582 67.8579 20.8036V19.2695C67.7868 19.3548 67.6306 19.4329 67.3891 19.5039C67.1524 19.5702 66.8777 19.6294 66.5652 19.6815C66.2575 19.7288 65.9568 19.7714 65.6633 19.8093C65.3744 19.8425 65.1401 19.8709 64.9601 19.8945C64.5245 19.9514 64.1173 20.0437 63.7385 20.1715C63.3645 20.2946 63.0615 20.4817 62.8294 20.7326C62.6022 20.9788 62.4885 21.315 62.4885 21.7411C62.4885 22.3235 62.704 22.7639 63.1348 23.0622C63.5704 23.3557 64.1221 23.5025 64.7897 23.5025ZM74.2694 10.207V24.7525H72.5933V10.207H74.2694ZM78.9019 20.7752L78.8735 18.7014H79.2144L83.9871 13.8434H86.061L80.9758 18.9855H80.8337L78.9019 20.7752ZM77.3394 24.7525V10.207H79.0155V24.7525H77.3394ZM84.2712 24.7525L80.0098 19.3548L81.203 18.19L86.4019 24.7525H84.2712Z" fill="white"/>
</g>
<defs>
<filter id="filter0_d_15_11" x="45.408" y="10.2071" width="44.9939" height="22.8011" filterUnits="userSpaceOnUse" color-interpolation-filters="sRGB">
<feFlood flood-opacity="0" result="BackgroundImageFix"/>
<feColorMatrix in="SourceAlpha" type="matrix" values="0 0 0 0 0 0 0 0 0 0 0 0 0 0 0 0 0 0 127 0" result="hardAlpha"/>
<feOffset dy="4"/>
<feGaussianBlur stdDeviation="2"/>
<feComposite in2="hardAlpha" operator="out"/>
<feColorMatrix type="matrix" values="0 0 0 0 0 0 0 0 0 0 0 0 0 0 0 0 0 0 0.25 0"/>
<feBlend mode="normal" in2="BackgroundImageFix" result="effect1_dropShadow_15_11"/>
<feBlend mode="normal" in="SourceGraphic" in2="effect1_dropShadow_15_11" result="shape"/>
</filter>
<linearGradient id="paint0_linear_15_11" x1="10.1096" y1="10.8359" x2="9.30834" y2="24.8767" gradientUnits="userSpaceOnUse">
<stop offset="0.26279" stop-color="#33AAFA"/>
<stop offset="0.86782" stop-color="#00FFF0"/>
</linearGradient>
<linearGradient id="paint1_linear_15_11" x1="23.1965" y1="3.85366" x2="33.0785" y2="23.6176" gradientUnits="userSpaceOnUse">
<stop stop-color="#33AAFA"/>
<stop offset="0.0001" stop-color="#FE4E85"/>
<stop offset="0.52604" stop-color="#FE4E85"/>
<stop offset="1" stop-color="#FE4EEC"/>
</linearGradient>
</defs>
</svg>
